<?xml version="1.0"?><svg xmlns="http://www.w3.org/2000/svg" id="Capa_1" enable-background="new 0 0 552.471 552.471" height="512px" viewBox="0 0 552.471 552.471" width="512px" class=""><g><path d="m168.749 68.269c-4.78 4.308-10.053 8.146-14.396 12.843l24.371 24.371c7.408-8.154 15.585-15.69 24.727-22.194l20.011-14.23h105.544l20.015 14.247c40.902 29.084 65.333 76.41 65.333 126.619v131.188l34.529 34.529v-165.717c0-54.475-23.629-106.107-63.908-141.909 16.498-2.588 29.379-16.276 29.379-33.486 0-19.035-15.494-34.53-34.529-34.53h-207.177c-19.035 0-34.529 15.494-34.529 34.529 0 17.653 13.513 31.71 30.63 33.74z" data-original="#000000" class="active-path" data-old_color="#000000" fill="#E98C72"/><path d="m552.471 528.059-528.058-528.058-24.413 24.413 116.773 116.773c-8.508 21.657-13.185 44.892-13.185 68.738v290.752c0 28.561 23.233 51.794 51.794 51.794h241.706c28.561 0 51.794-23.233 51.794-51.794v-27.381l79.175 79.175 24.413-24.413zm-138.117-27.381c0 9.509-7.739 17.265-17.265 17.265h-241.706c-9.526 0-17.265-7.756-17.265-17.265v-290.752c0-14.108 2.628-27.733 6.379-41.014l269.856 269.856c.001 0 .001 61.91.001 61.91z" data-original="#000000" class="active-path" data-old_color="#000000" fill="#E98C72"/></g> </svg>