<?xml version="1.0" encoding="UTF-8"?>
<!DOCTYPE svg PUBLIC "-//W3C//DTD SVG 1.1//EN" "http://www.w3.org/Graphics/SVG/1.1/DTD/svg11.dtd">
<svg version="1.2" width="87mm" height="47mm" viewBox="0 0 8700 4700" preserveAspectRatio="xMidYMid" fill-rule="evenodd" stroke-width="28.222" stroke-linejoin="round" xmlns="http://www.w3.org/2000/svg" xmlns:ooo="http://xml.openoffice.org/svg/export" xmlns:xlink="http://www.w3.org/1999/xlink" xmlns:presentation="http://sun.com/xmlns/staroffice/presentation" xmlns:smil="http://www.w3.org/2001/SMIL20/" xmlns:anim="urn:oasis:names:tc:opendocument:xmlns:animation:1.0" xml:space="preserve">
 <defs class="ClipPathGroup">
  <clipPath id="presentation_clip_path" clipPathUnits="userSpaceOnUse">
   <rect x="0" y="0" width="8700" height="4700"/>
  </clipPath>
  <clipPath id="presentation_clip_path_shrink" clipPathUnits="userSpaceOnUse">
   <rect x="8" y="4" width="8683" height="4691"/>
  </clipPath>
 </defs>
 <defs class="TextShapeIndex">
  <g ooo:slide="id1" ooo:id-list="id3 id4 id5 id6 id7 id8 id9 id10 id11 id12 id13 id14"/>
 </defs>
 <defs class="EmbeddedBulletChars">
  <g id="bullet-char-template-57356" transform="scale(0.00048828125,-0.00048828125)">
   <path d="M 580,1141 L 1163,571 580,0 -4,571 580,1141 Z"/>
  </g>
  <g id="bullet-char-template-57354" transform="scale(0.00048828125,-0.00048828125)">
   <path d="M 8,1128 L 1137,1128 1137,0 8,0 8,1128 Z"/>
  </g>
  <g id="bullet-char-template-10146" transform="scale(0.00048828125,-0.00048828125)">
   <path d="M 174,0 L 602,739 174,1481 1456,739 174,0 Z M 1358,739 L 309,1346 659,739 1358,739 Z"/>
  </g>
  <g id="bullet-char-template-10132" transform="scale(0.00048828125,-0.00048828125)">
   <path d="M 2015,739 L 1276,0 717,0 1260,543 174,543 174,936 1260,936 717,1481 1274,1481 2015,739 Z"/>
  </g>
  <g id="bullet-char-template-10007" transform="scale(0.00048828125,-0.00048828125)">
   <path d="M 0,-2 C -7,14 -16,27 -25,37 L 356,567 C 262,823 215,952 215,954 215,979 228,992 255,992 264,992 276,990 289,987 310,991 331,999 354,1012 L 381,999 492,748 772,1049 836,1024 860,1049 C 881,1039 901,1025 922,1006 886,937 835,863 770,784 769,783 710,716 594,584 L 774,223 C 774,196 753,168 711,139 L 727,119 C 717,90 699,76 672,76 641,76 570,178 457,381 L 164,-76 C 142,-110 111,-127 72,-127 30,-127 9,-110 8,-76 1,-67 -2,-52 -2,-32 -2,-23 -1,-13 0,-2 Z"/>
  </g>
  <g id="bullet-char-template-10004" transform="scale(0.00048828125,-0.00048828125)">
   <path d="M 285,-33 C 182,-33 111,30 74,156 52,228 41,333 41,471 41,549 55,616 82,672 116,743 169,778 240,778 293,778 328,747 346,684 L 369,508 C 377,444 397,411 428,410 L 1163,1116 C 1174,1127 1196,1133 1229,1133 1271,1133 1292,1118 1292,1087 L 1292,965 C 1292,929 1282,901 1262,881 L 442,47 C 390,-6 338,-33 285,-33 Z"/>
  </g>
  <g id="bullet-char-template-9679" transform="scale(0.00048828125,-0.00048828125)">
   <path d="M 813,0 C 632,0 489,54 383,161 276,268 223,411 223,592 223,773 276,916 383,1023 489,1130 632,1184 813,1184 992,1184 1136,1130 1245,1023 1353,916 1407,772 1407,592 1407,412 1353,268 1245,161 1136,54 992,0 813,0 Z"/>
  </g>
  <g id="bullet-char-template-8226" transform="scale(0.00048828125,-0.00048828125)">
   <path d="M 346,457 C 273,457 209,483 155,535 101,586 74,649 74,723 74,796 101,859 155,911 209,963 273,989 346,989 419,989 480,963 531,910 582,859 608,796 608,723 608,648 583,586 532,535 482,483 420,457 346,457 Z"/>
  </g>
  <g id="bullet-char-template-8211" transform="scale(0.00048828125,-0.00048828125)">
   <path d="M -4,459 L 1135,459 1135,606 -4,606 -4,459 Z"/>
  </g>
  <g id="bullet-char-template-61548" transform="scale(0.00048828125,-0.00048828125)">
   <path d="M 173,740 C 173,903 231,1043 346,1159 462,1274 601,1332 765,1332 928,1332 1067,1274 1183,1159 1299,1043 1357,903 1357,740 1357,577 1299,437 1183,322 1067,206 928,148 765,148 601,148 462,206 346,322 231,437 173,577 173,740 Z"/>
  </g>
 </defs>
 <defs class="TextEmbeddedBitmaps"/>
 <g>
  <g id="id2" class="Master_Slide">
   <g id="bg-id2" class="Background"/>
   <g id="bo-id2" class="BackgroundObjects"/>
  </g>
 </g>
 <g class="SlideGroup">
  <g>
   <g id="container-id1">
    <g id="id1" class="Slide" clip-path="url(#presentation_clip_path)">
     <g class="Page">
      <g class="com.sun.star.drawing.ClosedBezierShape">
       <g id="id3">
        <rect class="BoundingBox" stroke="none" fill="none" x="866" y="1189" width="2668" height="2334"/>
        <path fill="rgb(27,25,24)" stroke="none" d="M 1047,3344 C 1045,3394 1003,3433 953,3432 903,3430 865,3388 866,3338 866,3335 912,2082 888,1572 L 888,1571 888,1571 888,1571 C 885,1521 924,1478 974,1476 1024,1474 1066,1512 1069,1562 L 1069,1562 C 1084,1848 1250,2102 1479,2254 1598,2332 1733,2383 1870,2396 2007,2410 2148,2386 2281,2317 2460,2224 2626,2048 2754,1765 2787,1631 2830,1498 2880,1370 2856,1372 2842,1381 2842,1381 2799,1406 2744,1392 2718,1349 2693,1306 2707,1251 2750,1225 2751,1225 3041,1047 3252,1480 3274,1525 3255,1579 3210,1601 3165,1623 3111,1604 3089,1559 3074,1529 3060,1504 3046,1482 3012,1608 2972,1721 2927,1824 2924,1835 2921,1847 2919,1859 2845,2174 2827,2491 2892,2753 2954,3003 3092,3203 3332,3301 3372,3318 3416,3332 3462,3342 3511,3353 3541,3402 3530,3451 3519,3500 3470,3530 3421,3519 3365,3506 3312,3489 3263,3469 2963,3347 2790,3102 2715,2796 2672,2622 2662,2428 2677,2227 2580,2338 2475,2421 2364,2478 2198,2564 2023,2593 1853,2577 1685,2560 1521,2499 1379,2405 1261,2327 1157,2225 1075,2108 1071,2670 1047,3341 1047,3344 Z"/>
       </g>
      </g>
      <g class="com.sun.star.drawing.ClosedBezierShape">
       <g id="id4">
        <rect class="BoundingBox" stroke="none" fill="none" x="866" y="1189" width="2668" height="2334"/>
        <path fill="rgb(27,25,24)" stroke="none" d="M 1047,3344 C 1045,3394 1003,3433 953,3432 903,3430 865,3388 866,3338 866,3335 912,2082 888,1572 L 888,1571 888,1571 888,1571 C 885,1521 924,1478 974,1476 1024,1474 1066,1512 1069,1562 L 1069,1562 C 1084,1848 1250,2102 1479,2254 1598,2332 1733,2383 1870,2396 2007,2410 2148,2386 2281,2317 2460,2224 2626,2048 2754,1765 2787,1631 2830,1498 2880,1370 2856,1372 2842,1381 2842,1381 2799,1406 2744,1392 2718,1349 2693,1306 2707,1251 2750,1225 2751,1225 3041,1047 3252,1480 3274,1525 3255,1579 3210,1601 3165,1623 3111,1604 3089,1559 3074,1529 3060,1504 3046,1482 3012,1608 2972,1721 2927,1824 2924,1835 2921,1847 2919,1859 2845,2174 2827,2491 2892,2753 2954,3003 3092,3203 3332,3301 3372,3318 3416,3332 3462,3342 3511,3353 3541,3402 3530,3451 3519,3500 3470,3530 3421,3519 3365,3506 3312,3489 3263,3469 2963,3347 2790,3102 2715,2796 2672,2622 2662,2428 2677,2227 2580,2338 2475,2421 2364,2478 2198,2564 2023,2593 1853,2577 1685,2560 1521,2499 1379,2405 1261,2327 1157,2225 1075,2108 1071,2670 1047,3341 1047,3344 Z"/>
       </g>
      </g>
      <g class="com.sun.star.drawing.ClosedBezierShape">
       <g id="id5">
        <rect class="BoundingBox" stroke="none" fill="none" x="1515" y="673" width="213" height="574"/>
        <path fill="rgb(27,25,24)" stroke="none" d="M 1648,673 C 1704,673 1738,800 1723,959 1708,1118 1650,1246 1594,1246 1537,1246 1505,1118 1519,959 1534,800 1592,673 1648,673 Z"/>
       </g>
      </g>
      <g class="com.sun.star.drawing.ClosedBezierShape">
       <g id="id6">
        <rect class="BoundingBox" stroke="none" fill="none" x="1515" y="673" width="213" height="574"/>
        <path fill="rgb(27,25,24)" stroke="none" d="M 1648,673 C 1704,673 1738,800 1723,959 1708,1118 1650,1246 1594,1246 1537,1246 1505,1118 1519,959 1534,800 1592,673 1648,673 Z"/>
       </g>
      </g>
      <g class="com.sun.star.drawing.ClosedBezierShape">
       <g id="id7">
        <rect class="BoundingBox" stroke="none" fill="none" x="2233" y="547" width="258" height="700"/>
        <path fill="rgb(27,25,24)" stroke="none" d="M 2393,547 C 2462,547 2503,703 2485,896 2467,1090 2396,1246 2328,1246 2259,1246 2220,1090 2237,896 2255,703 2325,547 2393,547 Z"/>
       </g>
      </g>
      <g class="com.sun.star.drawing.ClosedBezierShape">
       <g id="id8">
        <rect class="BoundingBox" stroke="none" fill="none" x="2233" y="547" width="258" height="700"/>
        <path fill="rgb(27,25,24)" stroke="none" d="M 2393,547 C 2462,547 2503,703 2485,896 2467,1090 2396,1246 2328,1246 2259,1246 2220,1090 2237,896 2255,703 2325,547 2393,547 Z"/>
       </g>
      </g>
      <g class="com.sun.star.drawing.ClosedBezierShape">
       <g id="id9">
        <rect class="BoundingBox" stroke="none" fill="none" x="3441" y="1698" width="2166" height="524"/>
        <path fill="rgb(27,25,24)" stroke="none" d="M 3444,2127 L 3503,1801 C 3508,1774 3516,1755 3527,1744 3538,1732 3555,1726 3576,1726 3597,1726 3613,1732 3625,1742 3638,1753 3647,1769 3652,1791 L 3725,2076 3792,1790 C 3797,1769 3806,1753 3818,1742 3831,1732 3847,1726 3866,1726 3889,1726 3906,1732 3918,1745 3930,1757 3939,1777 3943,1805 L 3996,2134 C 3997,2139 3998,2143 3998,2148 3999,2152 3999,2156 3999,2160 3999,2177 3994,2191 3984,2201 3974,2211 3960,2217 3944,2217 3928,2217 3916,2211 3907,2201 3899,2190 3893,2174 3890,2153 L 3856,1867 C 3829,1982 3810,2063 3797,2110 3784,2157 3774,2186 3767,2197 3763,2204 3757,2209 3750,2212 3743,2215 3734,2217 3722,2217 3704,2217 3690,2212 3680,2204 3670,2196 3663,2182 3658,2162 L 3588,1867 3550,2146 C 3547,2171 3541,2189 3531,2200 3522,2211 3510,2217 3494,2217 3478,2217 3465,2211 3455,2201 3445,2191 3441,2177 3441,2160 3441,2155 3441,2151 3442,2145 3442,2139 3443,2133 3444,2127 Z M 3444,2127 L 3444,2127 Z M 4021,1759 C 4021,1742 4027,1728 4039,1715 4051,1704 4066,1698 4083,1698 4099,1698 4113,1704 4125,1715 4137,1728 4143,1742 4143,1759 4143,1776 4137,1790 4125,1802 4114,1814 4099,1820 4083,1820 4065,1820 4051,1814 4039,1802 4027,1790 4021,1776 4021,1759 Z M 4021,1759 L 4021,1759 Z M 4135,2138 C 4135,2164 4130,2183 4122,2196 4113,2208 4100,2215 4083,2215 4065,2215 4051,2208 4043,2196 4034,2183 4030,2164 4030,2138 L 4030,1924 C 4030,1898 4034,1879 4043,1866 4051,1854 4064,1848 4083,1848 4100,1848 4113,1854 4122,1866 4130,1879 4135,1898 4135,1924 L 4135,2138 Z M 4135,2138 L 4135,2138 Z M 4293,2220 C 4255,2220 4224,2213 4199,2198 4174,2182 4162,2164 4162,2142 4162,2128 4166,2117 4174,2108 4182,2099 4191,2094 4202,2094 4213,2094 4230,2099 4251,2109 4273,2120 4289,2125 4300,2125 4309,2125 4316,2123 4321,2119 4327,2114 4330,2109 4330,2103 4330,2093 4313,2081 4279,2067 L 4272,2065 C 4233,2048 4207,2032 4193,2017 4179,2001 4172,1981 4172,1956 4172,1923 4184,1896 4209,1874 4234,1853 4266,1842 4304,1842 4338,1842 4367,1849 4392,1864 4416,1878 4427,1896 4427,1915 4427,1928 4423,1938 4415,1947 4406,1955 4396,1961 4384,1961 4376,1961 4362,1955 4343,1947 4324,1938 4309,1934 4299,1934 4292,1934 4286,1936 4282,1939 4277,1943 4275,1947 4275,1952 4275,1963 4289,1973 4317,1984 4330,1989 4340,1993 4348,1997 4380,2011 4402,2026 4416,2042 4429,2058 4436,2077 4436,2099 4436,2134 4422,2163 4395,2186 4368,2209 4334,2220 4293,2220 Z M 4293,2220 L 4293,2220 Z M 4486,1949 L 4482,1949 C 4464,1949 4449,1945 4438,1937 4428,1929 4423,1918 4423,1904 4423,1890 4428,1878 4438,1871 4449,1863 4465,1858 4486,1857 L 4486,1811 C 4486,1785 4490,1765 4499,1753 4508,1740 4521,1734 4540,1734 4558,1734 4571,1740 4579,1753 4588,1765 4592,1785 4592,1811 L 4592,1857 4602,1857 C 4623,1857 4639,1861 4650,1869 4662,1878 4668,1889 4668,1904 4668,1919 4662,1930 4651,1938 4640,1946 4623,1949 4601,1949 L 4592,1949 4592,2138 C 4592,2164 4588,2183 4580,2196 4571,2208 4558,2215 4540,2215 4521,2215 4508,2208 4499,2196 4490,2183 4486,2164 4486,2138 L 4486,1949 Z M 4486,1949 L 4486,1949 Z M 4668,2066 L 4668,1924 C 4668,1898 4672,1879 4681,1866 4690,1854 4703,1848 4721,1848 4739,1848 4752,1854 4760,1866 4769,1879 4773,1898 4773,1924 L 4773,2044 C 4773,2073 4778,2092 4786,2104 4795,2116 4809,2122 4828,2122 4847,2122 4861,2116 4869,2104 4878,2092 4882,2073 4882,2044 L 4882,1924 C 4882,1898 4886,1879 4895,1866 4904,1854 4917,1848 4935,1848 4953,1848 4966,1854 4974,1866 4983,1879 4987,1898 4987,1924 L 4987,2066 C 4987,2116 4973,2155 4946,2181 4919,2207 4879,2221 4828,2221 4776,2221 4736,2207 4709,2181 4682,2155 4668,2116 4668,2066 Z M 4668,2066 L 4668,2066 Z M 5040,2138 L 5040,1924 C 5040,1898 5044,1879 5053,1866 5061,1854 5074,1848 5092,1848 5103,1848 5113,1851 5121,1856 5129,1862 5136,1870 5143,1881 5154,1870 5165,1861 5177,1855 5190,1849 5202,1846 5214,1846 5229,1846 5242,1851 5252,1861 5263,1872 5268,1884 5268,1898 5268,1919 5249,1937 5210,1951 5196,1956 5185,1961 5178,1965 5165,1971 5156,1978 5152,1986 5148,1993 5145,2007 5145,2028 L 5145,2138 C 5145,2164 5141,2183 5132,2196 5124,2208 5110,2215 5092,2215 5074,2215 5061,2208 5053,2196 5044,2183 5040,2164 5040,2138 Z M 5040,2138 L 5040,2138 Z M 5504,2178 C 5493,2191 5480,2201 5465,2208 5450,2215 5433,2218 5415,2218 5370,2218 5332,2200 5301,2165 5270,2129 5255,2085 5255,2032 5255,1979 5271,1934 5303,1898 5334,1862 5373,1844 5419,1844 5437,1844 5453,1847 5467,1853 5481,1859 5493,1869 5504,1881 5510,1870 5517,1862 5526,1856 5534,1850 5543,1848 5554,1848 5572,1848 5585,1854 5593,1866 5602,1879 5606,1898 5606,1924 L 5606,2138 C 5606,2164 5602,2183 5593,2196 5584,2208 5571,2215 5554,2215 5542,2215 5532,2211 5524,2206 5516,2200 5509,2190 5504,2178 Z M 5504,2178 L 5504,2178 Z M 5364,2030 C 5364,2056 5370,2077 5383,2093 5396,2109 5412,2117 5432,2117 5452,2117 5469,2109 5481,2093 5494,2077 5500,2056 5500,2030 5500,2005 5494,1985 5481,1969 5468,1953 5452,1945 5432,1945 5412,1945 5396,1953 5383,1969 5370,1985 5364,2005 5364,2030 Z"/>
       </g>
      </g>
      <g class="com.sun.star.drawing.ClosedBezierShape">
       <g id="id10">
        <rect class="BoundingBox" stroke="none" fill="none" x="5851" y="1695" width="2156" height="510"/>
        <path fill="rgb(27,25,24)" stroke="none" d="M 5854,2113 L 5911,1795 C 5916,1769 5924,1751 5935,1739 5946,1728 5962,1723 5983,1723 6003,1723 6019,1728 6031,1738 6043,1749 6052,1764 6057,1785 L 6128,2064 6194,1785 C 6199,1764 6207,1749 6219,1738 6231,1728 6247,1723 6266,1723 6288,1723 6305,1729 6317,1740 6328,1752 6336,1772 6341,1799 L 6393,2120 C 6393,2125 6394,2129 6394,2134 6395,2138 6395,2142 6395,2145 6395,2162 6390,2176 6380,2186 6371,2196 6358,2201 6342,2201 6327,2201 6315,2196 6306,2186 6297,2175 6292,2160 6289,2139 L 6256,1860 C 6230,1972 6211,2051 6198,2097 6186,2143 6176,2171 6169,2182 6165,2189 6160,2194 6153,2197 6146,2200 6137,2201 6125,2201 6107,2201 6094,2197 6084,2189 6075,2181 6068,2167 6063,2148 L 5994,1860 5958,2132 C 5954,2156 5948,2174 5939,2185 5930,2195 5918,2201 5902,2201 5887,2201 5874,2196 5865,2186 5855,2176 5851,2162 5851,2145 5851,2141 5851,2137 5851,2131 5852,2126 5853,2120 5854,2113 Z M 5854,2113 L 5854,2113 Z M 6506,1982 L 6642,1982 C 6641,1964 6634,1950 6621,1937 6608,1926 6593,1920 6576,1920 6558,1920 6543,1925 6531,1936 6518,1947 6510,1963 6506,1982 Z M 6506,1982 L 6506,1982 Z M 6508,2049 C 6510,2069 6518,2084 6532,2095 6545,2105 6563,2111 6586,2111 6605,2111 6626,2105 6650,2094 6674,2083 6689,2077 6694,2077 6706,2077 6716,2081 6724,2088 6731,2096 6735,2105 6735,2117 6735,2139 6720,2159 6689,2177 6658,2195 6622,2204 6580,2204 6529,2204 6487,2186 6453,2152 6419,2117 6402,2074 6402,2021 6402,1969 6418,1924 6451,1889 6484,1853 6526,1836 6575,1836 6623,1836 6663,1852 6695,1885 6727,1918 6743,1960 6743,2007 6743,2023 6739,2034 6732,2040 6725,2046 6712,2049 6692,2049 L 6508,2049 Z M 6508,2049 L 6508,2049 Z M 6773,1770 C 6773,1744 6777,1725 6786,1713 6794,1701 6807,1695 6825,1695 6842,1695 6855,1701 6863,1713 6871,1726 6876,1745 6876,1770 L 6876,2124 C 6876,2149 6872,2168 6863,2181 6855,2193 6842,2199 6825,2199 6807,2199 6794,2193 6786,2180 6777,2168 6773,2149 6773,2124 L 6773,1770 Z M 6773,1770 L 6773,1770 Z M 7155,2163 C 7144,2176 7132,2186 7117,2192 7102,2199 7086,2202 7069,2202 7025,2202 6987,2185 6957,2150 6926,2116 6911,2072 6911,2020 6911,1969 6927,1925 6959,1890 6990,1855 7028,1837 7072,1837 7090,1837 7105,1840 7119,1846 7132,1852 7144,1861 7155,1874 7161,1863 7168,1855 7176,1849 7185,1844 7194,1841 7204,1841 7221,1841 7234,1847 7242,1859 7251,1871 7255,1890 7255,1916 L 7255,2124 C 7255,2149 7250,2168 7242,2180 7234,2193 7221,2199 7204,2199 7193,2199 7183,2196 7175,2190 7167,2185 7160,2176 7155,2163 Z M 7155,2163 L 7155,2163 Z M 7019,2019 C 7019,2045 7025,2065 7037,2080 7050,2096 7066,2104 7085,2104 7105,2104 7121,2096 7133,2080 7145,2064 7152,2044 7152,2019 7152,1995 7145,1975 7133,1960 7120,1943 7105,1936 7085,1936 7066,1936 7050,1943 7037,1960 7025,1975 7019,1995 7019,2019 Z M 7019,2019 L 7019,2019 Z M 7394,2019 C 7394,2044 7400,2065 7413,2081 7426,2097 7442,2105 7462,2105 7481,2105 7498,2097 7510,2081 7523,2065 7529,2044 7529,2019 7529,1992 7523,1971 7510,1955 7498,1938 7482,1930 7462,1930 7442,1930 7425,1938 7413,1955 7400,1972 7394,1993 7394,2019 Z M 7394,2019 L 7394,2019 Z M 7530,2166 C 7520,2177 7507,2186 7493,2192 7479,2198 7463,2201 7447,2201 7403,2201 7366,2183 7335,2147 7303,2112 7288,2068 7288,2017 7288,1966 7303,1922 7334,1887 7365,1852 7403,1835 7447,1835 7463,1835 7477,1837 7490,1842 7504,1847 7516,1854 7528,1864 L 7528,1770 C 7528,1744 7532,1725 7540,1713 7549,1701 7562,1695 7579,1695 7596,1695 7609,1701 7618,1713 7626,1726 7630,1745 7630,1770 L 7630,2124 C 7630,2149 7626,2168 7618,2181 7609,2193 7597,2199 7579,2199 7569,2199 7560,2196 7552,2191 7543,2185 7536,2177 7530,2166 Z M 7530,2166 L 7530,2166 Z M 7906,2163 C 7895,2176 7883,2186 7868,2192 7853,2199 7837,2202 7819,2202 7775,2202 7738,2185 7708,2150 7678,2116 7663,2072 7663,2020 7663,1969 7679,1925 7710,1890 7741,1855 7779,1837 7823,1837 7841,1837 7856,1840 7870,1846 7883,1852 7895,1861 7906,1874 7912,1863 7919,1855 7927,1849 7935,1844 7945,1841 7955,1841 7972,1841 7985,1847 7993,1859 8001,1871 8006,1890 8006,1916 L 8006,2124 C 8006,2149 8001,2168 7993,2180 7985,2193 7972,2199 7955,2199 7943,2199 7934,2196 7926,2190 7918,2185 7911,2176 7906,2163 Z M 7906,2163 L 7906,2163 Z M 7770,2019 C 7770,2045 7776,2065 7788,2080 7801,2096 7817,2104 7836,2104 7856,2104 7872,2096 7884,2080 7896,2064 7903,2044 7903,2019 7903,1995 7896,1975 7884,1960 7871,1943 7856,1936 7836,1936 7817,1936 7801,1943 7788,1960 7776,1975 7770,1995 7770,2019 Z"/>
       </g>
      </g>
      <g class="com.sun.star.drawing.ClosedBezierShape">
       <g id="id11">
        <rect class="BoundingBox" stroke="none" fill="none" x="4157" y="2770" width="3282" height="332"/>
        <path fill="rgb(27,25,24)" stroke="none" d="M 4225,2980 C 4225,2996 4229,3010 4237,3021 4246,3031 4256,3037 4269,3037 4282,3037 4292,3031 4301,3021 4309,3010 4313,2996 4313,2980 4313,2963 4309,2949 4301,2938 4293,2928 4282,2923 4269,2923 4256,2923 4246,2928 4237,2939 4229,2949 4225,2963 4225,2980 Z M 4225,2980 L 4225,2980 Z M 4313,3076 C 4307,3083 4299,3089 4289,3093 4280,3097 4270,3099 4259,3099 4231,3099 4207,3087 4187,3064 4167,3041 4157,3012 4157,2979 4157,2946 4167,2918 4187,2895 4207,2872 4231,2861 4259,2861 4270,2861 4279,2863 4288,2866 4296,2869 4304,2874 4312,2880 L 4312,2818 C 4312,2802 4315,2789 4320,2781 4325,2774 4334,2770 4345,2770 4356,2770 4365,2774 4370,2782 4376,2790 4378,2802 4378,2818 L 4378,3049 C 4378,3065 4376,3078 4370,3086 4365,3094 4357,3097 4345,3097 4339,3097 4333,3096 4327,3092 4322,3088 4317,3083 4313,3076 Z M 4313,3076 L 4313,3076 Z M 4480,2980 C 4480,2997 4484,3011 4493,3022 4501,3033 4511,3038 4524,3038 4537,3038 4548,3033 4556,3022 4564,3011 4568,2997 4568,2980 4568,2964 4564,2950 4556,2940 4548,2929 4537,2924 4524,2924 4511,2924 4501,2929 4493,2940 4484,2950 4480,2963 4480,2980 Z M 4480,2980 L 4480,2980 Z M 4411,2981 C 4411,2946 4422,2918 4443,2895 4465,2873 4492,2862 4524,2862 4557,2862 4584,2873 4605,2895 4626,2917 4637,2946 4637,2981 4637,3016 4626,3045 4605,3068 4584,3090 4557,3101 4524,3101 4492,3101 4465,3090 4443,3068 4422,3045 4411,3016 4411,2981 Z M 4411,2981 L 4411,2981 Z M 4657,2981 C 4657,2946 4667,2917 4688,2895 4710,2873 4737,2862 4772,2862 4794,2862 4812,2866 4825,2874 4839,2882 4846,2892 4846,2905 4846,2913 4843,2920 4838,2925 4833,2931 4826,2933 4818,2933 4815,2933 4808,2932 4798,2928 4787,2925 4778,2923 4772,2923 4758,2923 4747,2928 4738,2939 4730,2949 4725,2963 4725,2980 4725,2997 4730,3011 4738,3022 4747,3032 4759,3037 4774,3037 4781,3037 4790,3035 4800,3032 4810,3028 4817,3027 4820,3027 4827,3027 4833,3030 4838,3035 4843,3041 4846,3048 4846,3056 4846,3068 4838,3078 4823,3087 4808,3096 4790,3100 4767,3100 4735,3100 4708,3089 4688,3067 4667,3045 4657,3016 4657,2981 Z M 4657,2981 L 4657,2981 Z M 4926,2956 L 5014,2956 C 5013,2945 5008,2935 5000,2928 4992,2920 4982,2916 4971,2916 4959,2916 4950,2920 4941,2927 4933,2934 4928,2944 4926,2956 Z M 4926,2956 L 4926,2956 Z M 4927,3000 C 4928,3012 4933,3023 4942,3030 4951,3037 4963,3040 4977,3040 4990,3040 5004,3037 5019,3030 5034,3022 5044,3019 5047,3019 5055,3019 5061,3021 5067,3026 5071,3031 5074,3037 5074,3045 5074,3059 5064,3072 5044,3083 5024,3095 5001,3100 4974,3100 4941,3100 4913,3089 4891,3067 4869,3044 4858,3015 4858,2981 4858,2947 4869,2919 4890,2896 4912,2873 4938,2862 4970,2862 5001,2862 5027,2873 5048,2894 5069,2915 5079,2942 5079,2972 5079,2983 5077,2989 5072,2994 5068,2998 5059,3000 5046,3000 L 4927,3000 Z M 4927,3000 L 4927,3000 Z M 5172,3101 C 5148,3101 5129,3096 5113,3087 5097,3077 5090,3065 5090,3051 5090,3043 5092,3036 5097,3030 5102,3024 5108,3021 5115,3021 5122,3021 5132,3025 5146,3031 5160,3037 5170,3041 5177,3041 5182,3041 5187,3039 5190,3037 5194,3034 5195,3031 5195,3027 5195,3020 5185,3012 5163,3003 5161,3003 5160,3002 5159,3002 5135,2992 5118,2981 5109,2971 5100,2961 5096,2949 5096,2933 5096,2913 5103,2896 5119,2882 5135,2868 5155,2862 5179,2862 5201,2862 5219,2866 5234,2875 5250,2885 5257,2896 5257,2908 5257,2916 5255,2923 5249,2928 5244,2933 5237,2936 5230,2936 5225,2936 5216,2933 5204,2928 5191,2923 5182,2920 5176,2920 5171,2920 5168,2921 5165,2923 5162,2925 5161,2928 5161,2932 5161,2938 5170,2944 5187,2951 5196,2954 5202,2957 5207,2959 5227,2968 5241,2977 5250,2987 5258,2997 5262,3009 5262,3025 5262,3046 5254,3065 5237,3079 5220,3094 5198,3101 5172,3101 Z M 5172,3101 L 5172,3101 Z M 5573,3074 C 5567,3082 5559,3089 5549,3093 5539,3097 5529,3100 5518,3100 5489,3100 5465,3088 5446,3066 5426,3043 5416,3014 5416,2981 5416,2948 5427,2920 5447,2897 5467,2874 5491,2863 5520,2863 5531,2863 5541,2865 5550,2869 5559,2872 5567,2878 5573,2887 5577,2880 5582,2874 5587,2871 5593,2867 5599,2865 5605,2865 5617,2865 5625,2869 5630,2877 5636,2885 5638,2897 5638,2914 L 5638,3049 C 5638,3065 5636,3077 5630,3085 5625,3093 5616,3097 5605,3097 5598,3097 5592,3095 5586,3092 5581,3088 5577,3082 5573,3074 Z M 5573,3074 L 5573,3074 Z M 5485,2980 C 5485,2996 5489,3010 5497,3021 5505,3031 5516,3036 5529,3036 5541,3036 5551,3031 5559,3020 5567,3009 5571,2996 5571,2980 5571,2964 5567,2952 5559,2942 5551,2932 5541,2927 5529,2927 5516,2927 5506,2932 5498,2942 5489,2951 5485,2964 5485,2980 Z M 5485,2980 L 5485,2980 Z M 5684,3049 L 5684,2914 C 5684,2897 5687,2885 5693,2877 5698,2869 5706,2865 5718,2865 5724,2865 5731,2867 5736,2871 5741,2874 5746,2879 5750,2887 5757,2879 5764,2874 5772,2870 5779,2866 5787,2864 5795,2864 5805,2864 5813,2867 5820,2874 5826,2880 5830,2888 5830,2897 5830,2911 5817,2922 5792,2931 5783,2934 5777,2936 5772,2938 5764,2943 5758,2947 5755,2952 5753,2957 5751,2966 5751,2978 L 5751,3049 C 5751,3065 5749,3077 5743,3085 5737,3093 5729,3097 5718,3097 5706,3097 5698,3093 5693,3085 5687,3077 5684,3065 5684,3049 Z M 5684,3049 L 5684,3049 Z M 5860,2930 L 5857,2930 C 5845,2930 5836,2927 5830,2922 5823,2917 5820,2910 5820,2901 5820,2892 5823,2885 5830,2880 5836,2875 5846,2872 5860,2871 L 5860,2841 C 5860,2825 5863,2812 5868,2804 5874,2796 5882,2792 5893,2792 5904,2792 5913,2796 5918,2804 5923,2812 5926,2825 5926,2841 L 5926,2871 5932,2871 C 5945,2871 5956,2874 5963,2879 5970,2884 5974,2892 5974,2901 5974,2910 5971,2918 5963,2922 5956,2927 5946,2930 5932,2930 L 5926,2930 5926,3049 C 5926,3065 5924,3078 5918,3086 5913,3094 5904,3097 5893,3097 5882,3097 5874,3093 5868,3085 5863,3077 5860,3065 5860,3049 L 5860,2930 Z M 5860,2930 L 5860,2930 Z M 6042,2956 L 6130,2956 C 6129,2945 6124,2935 6116,2928 6108,2920 6098,2916 6087,2916 6075,2916 6066,2920 6058,2927 6049,2934 6044,2944 6042,2956 Z M 6042,2956 L 6042,2956 Z M 6043,3000 C 6044,3012 6049,3023 6058,3030 6067,3037 6079,3040 6093,3040 6106,3040 6120,3037 6135,3030 6150,3022 6160,3019 6163,3019 6171,3019 6178,3021 6183,3026 6187,3031 6190,3037 6190,3045 6190,3059 6180,3072 6160,3083 6140,3095 6117,3100 6090,3100 6057,3100 6029,3089 6007,3067 5985,3044 5974,3015 5974,2981 5974,2947 5985,2919 6006,2896 6028,2873 6054,2862 6086,2862 6117,2862 6143,2873 6164,2894 6185,2915 6195,2942 6195,2972 6195,2983 6193,2989 6188,2994 6184,2998 6175,3000 6162,3000 L 6043,3000 Z M 6043,3000 L 6043,3000 Z M 6288,3101 C 6264,3101 6245,3096 6229,3087 6213,3077 6206,3065 6206,3051 6206,3043 6208,3036 6213,3030 6218,3024 6224,3021 6231,3021 6238,3021 6248,3025 6262,3031 6276,3037 6286,3041 6293,3041 6298,3041 6303,3039 6306,3037 6310,3034 6311,3031 6311,3027 6311,3020 6301,3012 6279,3003 6277,3003 6276,3002 6275,3002 6251,2992 6234,2981 6225,2971 6216,2961 6212,2949 6212,2933 6212,2913 6219,2896 6235,2882 6251,2868 6271,2862 6295,2862 6317,2862 6335,2866 6351,2875 6366,2885 6373,2896 6373,2908 6373,2916 6371,2923 6365,2928 6360,2933 6353,2936 6346,2936 6341,2936 6332,2933 6320,2928 6307,2923 6298,2920 6292,2920 6287,2920 6284,2921 6281,2923 6278,2925 6277,2928 6277,2932 6277,2938 6286,2944 6303,2951 6312,2954 6318,2957 6323,2959 6343,2968 6357,2977 6366,2987 6374,2997 6378,3009 6378,3025 6378,3046 6370,3065 6353,3079 6336,3094 6314,3101 6288,3101 Z M 6288,3101 L 6288,3101 Z M 6552,3074 C 6546,3082 6537,3089 6528,3093 6518,3097 6508,3100 6496,3100 6468,3100 6444,3088 6424,3066 6405,3043 6395,3014 6395,2981 6395,2948 6405,2920 6425,2897 6446,2874 6470,2863 6499,2863 6510,2863 6520,2865 6529,2869 6538,2872 6546,2878 6552,2887 6556,2880 6561,2874 6566,2871 6571,2867 6577,2865 6584,2865 6595,2865 6604,2869 6609,2877 6614,2885 6617,2897 6617,2914 L 6617,3049 C 6617,3065 6614,3077 6609,3085 6603,3093 6595,3097 6584,3097 6577,3097 6570,3095 6565,3092 6560,3088 6556,3082 6552,3074 Z M 6552,3074 L 6552,3074 Z M 6464,2980 C 6464,2996 6468,3010 6476,3021 6484,3031 6495,3036 6507,3036 6520,3036 6530,3031 6538,3020 6546,3009 6550,2996 6550,2980 6550,2964 6546,2952 6538,2942 6530,2932 6520,2927 6507,2927 6495,2927 6484,2932 6476,2942 6468,2951 6464,2964 6464,2980 Z M 6464,2980 L 6464,2980 Z M 6663,3049 L 6663,2914 C 6663,2897 6666,2885 6671,2877 6677,2869 6685,2865 6697,2865 6703,2865 6709,2867 6715,2871 6720,2874 6724,2879 6728,2887 6736,2879 6744,2873 6753,2869 6763,2866 6774,2864 6787,2864 6814,2864 6834,2872 6848,2887 6862,2902 6869,2924 6869,2952 L 6869,3049 C 6869,3065 6866,3077 6860,3085 6855,3093 6846,3097 6835,3097 6824,3097 6815,3093 6810,3085 6804,3077 6802,3065 6802,3049 L 6802,2972 C 6802,2954 6799,2941 6793,2933 6788,2925 6778,2921 6766,2921 6754,2921 6745,2925 6739,2933 6733,2941 6730,2954 6730,2972 L 6730,3049 C 6730,3065 6727,3077 6722,3085 6716,3093 6708,3097 6697,3097 6685,3097 6677,3093 6671,3085 6666,3077 6663,3065 6663,3049 Z M 6663,3049 L 6663,3049 Z M 7056,3074 C 7050,3082 7041,3089 7032,3093 7022,3097 7012,3100 7001,3100 6972,3100 6948,3088 6929,3066 6909,3043 6899,3014 6899,2981 6899,2948 6909,2920 6930,2897 6950,2874 6974,2863 7003,2863 7014,2863 7024,2865 7033,2869 7042,2872 7050,2878 7056,2887 7060,2880 7065,2874 7070,2871 7076,2867 7082,2865 7088,2865 7099,2865 7108,2869 7113,2877 7118,2885 7121,2897 7121,2914 L 7121,3049 C 7121,3065 7118,3077 7113,3085 7108,3093 7099,3097 7088,3097 7081,3097 7075,3095 7069,3092 7064,3088 7060,3082 7056,3074 Z M 7056,3074 L 7056,3074 Z M 6968,2980 C 6968,2996 6972,3010 6980,3021 6988,3031 6999,3036 7012,3036 7024,3036 7034,3031 7042,3020 7050,3009 7054,2996 7054,2980 7054,2964 7050,2952 7042,2942 7034,2932 7024,2927 7012,2927 6999,2927 6988,2932 6980,2942 6972,2951 6968,2964 6968,2980 Z M 6968,2980 L 6968,2980 Z M 7164,2808 C 7164,2798 7168,2788 7176,2781 7183,2773 7192,2770 7203,2770 7213,2770 7222,2773 7230,2781 7237,2788 7241,2798 7241,2808 7241,2819 7237,2828 7230,2835 7223,2843 7214,2847 7203,2847 7192,2847 7183,2843 7175,2835 7168,2828 7164,2819 7164,2808 Z M 7164,2808 L 7164,2808 Z M 7236,3049 C 7236,3065 7233,3078 7228,3086 7222,3094 7214,3097 7203,3097 7192,3097 7183,3093 7178,3085 7172,3077 7169,3065 7169,3049 L 7169,2914 C 7169,2897 7172,2885 7178,2877 7183,2869 7192,2865 7203,2865 7214,2865 7222,2869 7228,2877 7233,2885 7236,2897 7236,2914 L 7236,3049 Z M 7236,3049 L 7236,3049 Z M 7348,3101 C 7324,3101 7304,3096 7288,3087 7273,3077 7265,3065 7265,3051 7265,3043 7267,3036 7272,3030 7277,3024 7283,3021 7290,3021 7297,3021 7308,3025 7321,3031 7335,3037 7345,3041 7352,3041 7358,3041 7362,3039 7366,3037 7369,3034 7371,3031 7371,3027 7371,3020 7360,3012 7339,3003 7337,3003 7335,3002 7335,3002 7310,2992 7293,2981 7284,2971 7275,2961 7271,2949 7271,2933 7271,2913 7279,2896 7295,2882 7310,2868 7330,2862 7354,2862 7376,2862 7395,2866 7410,2875 7425,2885 7433,2896 7433,2908 7433,2916 7430,2923 7425,2928 7419,2933 7413,2936 7405,2936 7400,2936 7391,2933 7379,2928 7367,2923 7358,2920 7351,2920 7347,2920 7343,2921 7340,2923 7338,2925 7336,2928 7336,2932 7336,2938 7345,2944 7363,2951 7371,2954 7378,2957 7382,2959 7402,2968 7417,2977 7425,2987 7434,2997 7438,3009 7438,3025 7438,3046 7429,3065 7412,3079 7395,3094 7374,3101 7348,3101 Z"/>
       </g>
      </g>
      <g class="com.sun.star.drawing.LineShape">
       <g id="id12">
        <rect class="BoundingBox" stroke="none" fill="none" x="6209" y="2516" width="1809" height="21"/>
        <path fill="none" stroke="rgb(27,25,24)" stroke-width="20" stroke-linejoin="miter" d="M 6209,2526 L 8017,2526"/>
       </g>
      </g>
      <g class="com.sun.star.drawing.LineShape">
       <g id="id13">
        <rect class="BoundingBox" stroke="none" fill="none" x="3516" y="2516" width="1758" height="21"/>
        <path fill="none" stroke="rgb(27,25,24)" stroke-width="20" stroke-linejoin="miter" d="M 3516,2526 L 5273,2526"/>
       </g>
      </g>
      <g class="com.sun.star.drawing.ClosedBezierShape">
       <g id="id14">
        <rect class="BoundingBox" stroke="none" fill="none" x="5570" y="2334" width="309" height="394"/>
        <path fill="rgb(27,25,24)" stroke="none" d="M 5724,2414 C 5741,2369 5759,2347 5795,2347 5834,2347 5865,2387 5865,2436 5865,2526 5795,2617 5724,2706 5654,2617 5583,2526 5583,2436 5583,2387 5614,2347 5654,2347 5689,2347 5706,2369 5724,2414 Z"/>
        <path fill="none" stroke="rgb(27,25,24)" stroke-width="25" stroke-linejoin="miter" d="M 5724,2414 C 5741,2369 5759,2347 5795,2347 5834,2347 5865,2387 5865,2436 5865,2526 5795,2617 5724,2706 5654,2617 5583,2526 5583,2436 5583,2387 5614,2347 5654,2347 5689,2347 5706,2369 5724,2414 Z"/>
       </g>
      </g>
     </g>
    </g>
   </g>
  </g>
 </g>
</svg>