<?xml version="1.0" encoding="UTF-8"?>
<!DOCTYPE svg PUBLIC "-//W3C//DTD SVG 1.1//EN" "http://www.w3.org/Graphics/SVG/1.1/DTD/svg11.dtd">
<svg version="1.2" width="87mm" height="47mm" viewBox="0 0 8700 4700" preserveAspectRatio="xMidYMid" fill-rule="evenodd" stroke-width="28.222" stroke-linejoin="round" xmlns="http://www.w3.org/2000/svg" xmlns:ooo="http://xml.openoffice.org/svg/export" xmlns:xlink="http://www.w3.org/1999/xlink" xmlns:presentation="http://sun.com/xmlns/staroffice/presentation" xmlns:smil="http://www.w3.org/2001/SMIL20/" xmlns:anim="urn:oasis:names:tc:opendocument:xmlns:animation:1.0" xml:space="preserve">
 <defs class="ClipPathGroup">
  <clipPath id="presentation_clip_path" clipPathUnits="userSpaceOnUse">
   <rect x="0" y="0" width="8700" height="4700"/>
  </clipPath>
  <clipPath id="presentation_clip_path_shrink" clipPathUnits="userSpaceOnUse">
   <rect x="8" y="4" width="8683" height="4691"/>
  </clipPath>
 </defs>
 <defs class="TextShapeIndex">
  <g ooo:slide="id1" ooo:id-list="id3 id4 id5 id6 id7 id8 id9 id10 id11 id12 id13 id14"/>
 </defs>
 <defs class="EmbeddedBulletChars">
  <g id="bullet-char-template-57356" transform="scale(0.00048828125,-0.00048828125)">
   <path d="M 580,1141 L 1163,571 580,0 -4,571 580,1141 Z"/>
  </g>
  <g id="bullet-char-template-57354" transform="scale(0.00048828125,-0.00048828125)">
   <path d="M 8,1128 L 1137,1128 1137,0 8,0 8,1128 Z"/>
  </g>
  <g id="bullet-char-template-10146" transform="scale(0.00048828125,-0.00048828125)">
   <path d="M 174,0 L 602,739 174,1481 1456,739 174,0 Z M 1358,739 L 309,1346 659,739 1358,739 Z"/>
  </g>
  <g id="bullet-char-template-10132" transform="scale(0.00048828125,-0.00048828125)">
   <path d="M 2015,739 L 1276,0 717,0 1260,543 174,543 174,936 1260,936 717,1481 1274,1481 2015,739 Z"/>
  </g>
  <g id="bullet-char-template-10007" transform="scale(0.00048828125,-0.00048828125)">
   <path d="M 0,-2 C -7,14 -16,27 -25,37 L 356,567 C 262,823 215,952 215,954 215,979 228,992 255,992 264,992 276,990 289,987 310,991 331,999 354,1012 L 381,999 492,748 772,1049 836,1024 860,1049 C 881,1039 901,1025 922,1006 886,937 835,863 770,784 769,783 710,716 594,584 L 774,223 C 774,196 753,168 711,139 L 727,119 C 717,90 699,76 672,76 641,76 570,178 457,381 L 164,-76 C 142,-110 111,-127 72,-127 30,-127 9,-110 8,-76 1,-67 -2,-52 -2,-32 -2,-23 -1,-13 0,-2 Z"/>
  </g>
  <g id="bullet-char-template-10004" transform="scale(0.00048828125,-0.00048828125)">
   <path d="M 285,-33 C 182,-33 111,30 74,156 52,228 41,333 41,471 41,549 55,616 82,672 116,743 169,778 240,778 293,778 328,747 346,684 L 369,508 C 377,444 397,411 428,410 L 1163,1116 C 1174,1127 1196,1133 1229,1133 1271,1133 1292,1118 1292,1087 L 1292,965 C 1292,929 1282,901 1262,881 L 442,47 C 390,-6 338,-33 285,-33 Z"/>
  </g>
  <g id="bullet-char-template-9679" transform="scale(0.00048828125,-0.00048828125)">
   <path d="M 813,0 C 632,0 489,54 383,161 276,268 223,411 223,592 223,773 276,916 383,1023 489,1130 632,1184 813,1184 992,1184 1136,1130 1245,1023 1353,916 1407,772 1407,592 1407,412 1353,268 1245,161 1136,54 992,0 813,0 Z"/>
  </g>
  <g id="bullet-char-template-8226" transform="scale(0.00048828125,-0.00048828125)">
   <path d="M 346,457 C 273,457 209,483 155,535 101,586 74,649 74,723 74,796 101,859 155,911 209,963 273,989 346,989 419,989 480,963 531,910 582,859 608,796 608,723 608,648 583,586 532,535 482,483 420,457 346,457 Z"/>
  </g>
  <g id="bullet-char-template-8211" transform="scale(0.00048828125,-0.00048828125)">
   <path d="M -4,459 L 1135,459 1135,606 -4,606 -4,459 Z"/>
  </g>
  <g id="bullet-char-template-61548" transform="scale(0.00048828125,-0.00048828125)">
   <path d="M 173,740 C 173,903 231,1043 346,1159 462,1274 601,1332 765,1332 928,1332 1067,1274 1183,1159 1299,1043 1357,903 1357,740 1357,577 1299,437 1183,322 1067,206 928,148 765,148 601,148 462,206 346,322 231,437 173,577 173,740 Z"/>
  </g>
 </defs>
 <defs class="TextEmbeddedBitmaps"/>
 <g>
  <g id="id2" class="Master_Slide">
   <g id="bg-id2" class="Background"/>
   <g id="bo-id2" class="BackgroundObjects"/>
  </g>
 </g>
 <g class="SlideGroup">
  <g>
   <g id="container-id1">
    <g id="id1" class="Slide" clip-path="url(#presentation_clip_path)">
     <g class="Page">
      <g class="com.sun.star.drawing.ClosedBezierShape">
       <g id="id3">
        <rect class="BoundingBox" stroke="none" fill="none" x="849" y="1467" width="2668" height="2334"/>
        <path fill="rgb(255,255,255)" stroke="none" d="M 1030,3622 C 1028,3672 986,3711 936,3710 886,3708 848,3666 849,3616 849,3613 895,2360 871,1850 L 871,1849 871,1849 871,1849 C 868,1799 907,1756 957,1754 1007,1752 1049,1790 1052,1840 L 1052,1840 C 1067,2126 1233,2380 1462,2532 1581,2610 1716,2661 1853,2674 1990,2688 2131,2664 2264,2595 2443,2502 2609,2326 2737,2043 2770,1909 2813,1776 2863,1648 2839,1650 2825,1659 2825,1659 2782,1684 2727,1670 2701,1627 2676,1584 2690,1529 2733,1503 2734,1503 3024,1325 3235,1758 3257,1803 3238,1857 3193,1879 3148,1901 3094,1882 3072,1837 3057,1807 3043,1782 3029,1760 2995,1886 2955,1999 2910,2102 2907,2113 2904,2125 2902,2137 2828,2452 2810,2769 2875,3031 2937,3281 3075,3481 3315,3579 3355,3596 3399,3610 3445,3620 3494,3631 3524,3680 3513,3729 3502,3778 3453,3808 3404,3797 3348,3784 3295,3767 3246,3747 2946,3625 2773,3380 2698,3074 2655,2900 2645,2706 2660,2505 2563,2616 2458,2699 2347,2756 2181,2842 2006,2871 1836,2855 1668,2838 1504,2777 1362,2683 1244,2605 1140,2503 1058,2386 1054,2948 1030,3619 1030,3622 Z"/>
       </g>
      </g>
      <g class="com.sun.star.drawing.ClosedBezierShape">
       <g id="id4">
        <rect class="BoundingBox" stroke="none" fill="none" x="849" y="1467" width="2668" height="2334"/>
        <path fill="rgb(255,255,255)" stroke="none" d="M 1030,3622 C 1028,3672 986,3711 936,3710 886,3708 848,3666 849,3616 849,3613 895,2360 871,1850 L 871,1849 871,1849 871,1849 C 868,1799 907,1756 957,1754 1007,1752 1049,1790 1052,1840 L 1052,1840 C 1067,2126 1233,2380 1462,2532 1581,2610 1716,2661 1853,2674 1990,2688 2131,2664 2264,2595 2443,2502 2609,2326 2737,2043 2770,1909 2813,1776 2863,1648 2839,1650 2825,1659 2825,1659 2782,1684 2727,1670 2701,1627 2676,1584 2690,1529 2733,1503 2734,1503 3024,1325 3235,1758 3257,1803 3238,1857 3193,1879 3148,1901 3094,1882 3072,1837 3057,1807 3043,1782 3029,1760 2995,1886 2955,1999 2910,2102 2907,2113 2904,2125 2902,2137 2828,2452 2810,2769 2875,3031 2937,3281 3075,3481 3315,3579 3355,3596 3399,3610 3445,3620 3494,3631 3524,3680 3513,3729 3502,3778 3453,3808 3404,3797 3348,3784 3295,3767 3246,3747 2946,3625 2773,3380 2698,3074 2655,2900 2645,2706 2660,2505 2563,2616 2458,2699 2347,2756 2181,2842 2006,2871 1836,2855 1668,2838 1504,2777 1362,2683 1244,2605 1140,2503 1058,2386 1054,2948 1030,3619 1030,3622 Z"/>
       </g>
      </g>
      <g class="com.sun.star.drawing.ClosedBezierShape">
       <g id="id5">
        <rect class="BoundingBox" stroke="none" fill="none" x="1499" y="951" width="212" height="574"/>
        <path fill="rgb(255,255,255)" stroke="none" d="M 1631,951 C 1687,951 1721,1078 1706,1237 1691,1396 1633,1524 1577,1524 1520,1524 1488,1396 1502,1237 1517,1078 1575,951 1631,951 Z"/>
       </g>
      </g>
      <g class="com.sun.star.drawing.ClosedBezierShape">
       <g id="id6">
        <rect class="BoundingBox" stroke="none" fill="none" x="1499" y="951" width="212" height="574"/>
        <path fill="rgb(255,255,255)" stroke="none" d="M 1631,951 C 1687,951 1721,1078 1706,1237 1691,1396 1633,1524 1577,1524 1520,1524 1488,1396 1502,1237 1517,1078 1575,951 1631,951 Z"/>
       </g>
      </g>
      <g class="com.sun.star.drawing.ClosedBezierShape">
       <g id="id7">
        <rect class="BoundingBox" stroke="none" fill="none" x="2216" y="825" width="258" height="700"/>
        <path fill="rgb(255,255,255)" stroke="none" d="M 2376,825 C 2445,825 2486,981 2468,1174 2450,1368 2379,1524 2311,1524 2242,1524 2203,1368 2220,1174 2238,981 2308,825 2376,825 Z"/>
       </g>
      </g>
      <g class="com.sun.star.drawing.ClosedBezierShape">
       <g id="id8">
        <rect class="BoundingBox" stroke="none" fill="none" x="2216" y="825" width="258" height="700"/>
        <path fill="rgb(255,255,255)" stroke="none" d="M 2376,825 C 2445,825 2486,981 2468,1174 2450,1368 2379,1524 2311,1524 2242,1524 2203,1368 2220,1174 2238,981 2308,825 2376,825 Z"/>
       </g>
      </g>
      <g class="com.sun.star.drawing.ClosedBezierShape">
       <g id="id9">
        <rect class="BoundingBox" stroke="none" fill="none" x="3424" y="1975" width="2166" height="525"/>
        <path fill="rgb(255,255,255)" stroke="none" d="M 3427,2405 L 3486,2079 C 3491,2052 3499,2033 3510,2022 3521,2010 3538,2004 3559,2004 3580,2004 3596,2010 3608,2020 3621,2031 3630,2047 3635,2069 L 3708,2354 3775,2068 C 3780,2047 3789,2031 3801,2020 3814,2010 3830,2004 3849,2004 3872,2004 3889,2010 3901,2023 3913,2035 3922,2055 3926,2083 L 3979,2412 C 3980,2417 3981,2421 3981,2426 3982,2430 3982,2434 3982,2438 3982,2455 3977,2469 3967,2479 3957,2489 3943,2495 3927,2495 3911,2495 3899,2489 3890,2479 3882,2468 3876,2452 3873,2431 L 3839,2145 C 3812,2260 3793,2341 3780,2388 3767,2435 3757,2464 3750,2475 3746,2482 3740,2487 3733,2490 3726,2493 3717,2495 3705,2495 3687,2495 3673,2490 3663,2482 3653,2474 3646,2460 3641,2440 L 3571,2145 3533,2424 C 3530,2449 3524,2467 3514,2478 3505,2489 3493,2495 3477,2495 3461,2495 3448,2489 3438,2479 3428,2469 3424,2455 3424,2438 3424,2433 3424,2429 3425,2423 3425,2417 3426,2411 3427,2405 Z M 3427,2405 L 3427,2405 Z M 4004,2037 C 4004,2020 4010,2006 4022,1993 4034,1982 4049,1976 4066,1976 4082,1976 4096,1982 4108,1993 4120,2006 4126,2020 4126,2037 4126,2054 4120,2068 4108,2080 4097,2092 4082,2098 4066,2098 4048,2098 4034,2092 4022,2080 4010,2068 4004,2054 4004,2037 Z M 4004,2037 L 4004,2037 Z M 4118,2416 C 4118,2442 4113,2461 4105,2474 4096,2486 4083,2493 4066,2493 4048,2493 4034,2486 4026,2474 4017,2461 4013,2442 4013,2416 L 4013,2202 C 4013,2176 4017,2157 4026,2144 4034,2132 4047,2126 4066,2126 4083,2126 4096,2132 4105,2144 4113,2157 4118,2176 4118,2202 L 4118,2416 Z M 4118,2416 L 4118,2416 Z M 4276,2498 C 4238,2498 4207,2491 4182,2476 4157,2460 4145,2442 4145,2420 4145,2406 4149,2395 4157,2386 4165,2377 4174,2372 4185,2372 4196,2372 4213,2377 4234,2387 4256,2398 4272,2403 4283,2403 4292,2403 4299,2401 4304,2397 4310,2392 4313,2387 4313,2381 4313,2371 4296,2359 4262,2345 L 4255,2343 C 4216,2326 4190,2310 4176,2295 4162,2279 4155,2259 4155,2234 4155,2201 4167,2174 4192,2152 4217,2131 4249,2120 4287,2120 4321,2120 4350,2127 4375,2142 4399,2156 4410,2174 4410,2193 4410,2206 4406,2216 4398,2225 4389,2233 4379,2239 4367,2239 4359,2239 4345,2233 4326,2225 4307,2216 4292,2212 4282,2212 4275,2212 4269,2214 4265,2217 4260,2221 4258,2225 4258,2230 4258,2241 4272,2251 4300,2262 4313,2267 4323,2271 4331,2275 4363,2289 4385,2304 4399,2320 4412,2336 4419,2355 4419,2377 4419,2412 4405,2441 4378,2464 4351,2487 4317,2498 4276,2498 Z M 4276,2498 L 4276,2498 Z M 4469,2227 L 4465,2227 C 4447,2227 4432,2223 4421,2215 4411,2207 4406,2196 4406,2182 4406,2168 4411,2156 4421,2149 4432,2141 4448,2136 4469,2135 L 4469,2089 C 4469,2063 4473,2043 4482,2031 4491,2018 4504,2012 4523,2012 4541,2012 4554,2018 4562,2031 4571,2043 4575,2063 4575,2089 L 4575,2135 4585,2135 C 4606,2135 4622,2139 4633,2147 4645,2156 4651,2167 4651,2182 4651,2197 4645,2208 4634,2216 4623,2224 4606,2227 4584,2227 L 4575,2227 4575,2416 C 4575,2442 4571,2461 4563,2474 4554,2486 4541,2493 4523,2493 4504,2493 4491,2486 4482,2474 4473,2461 4469,2442 4469,2416 L 4469,2227 Z M 4469,2227 L 4469,2227 Z M 4651,2344 L 4651,2202 C 4651,2176 4655,2157 4664,2144 4673,2132 4686,2126 4704,2126 4722,2126 4735,2132 4743,2144 4752,2157 4756,2176 4756,2202 L 4756,2322 C 4756,2351 4761,2370 4769,2382 4778,2394 4792,2400 4811,2400 4830,2400 4844,2394 4852,2382 4861,2370 4865,2351 4865,2322 L 4865,2202 C 4865,2176 4869,2157 4878,2144 4887,2132 4900,2126 4918,2126 4936,2126 4949,2132 4957,2144 4966,2157 4970,2176 4970,2202 L 4970,2344 C 4970,2394 4956,2433 4929,2459 4902,2485 4862,2499 4811,2499 4759,2499 4719,2485 4692,2459 4665,2433 4651,2394 4651,2344 Z M 4651,2344 L 4651,2344 Z M 5023,2416 L 5023,2202 C 5023,2176 5027,2157 5036,2144 5044,2132 5057,2126 5075,2126 5086,2126 5096,2129 5104,2134 5112,2140 5119,2148 5126,2159 5137,2148 5148,2139 5160,2133 5173,2127 5185,2124 5197,2124 5212,2124 5225,2129 5235,2139 5246,2150 5251,2162 5251,2176 5251,2197 5232,2215 5193,2229 5179,2234 5168,2239 5161,2243 5148,2249 5139,2256 5135,2264 5131,2271 5128,2285 5128,2306 L 5128,2416 C 5128,2442 5124,2461 5115,2474 5107,2486 5093,2493 5075,2493 5057,2493 5044,2486 5036,2474 5027,2461 5023,2442 5023,2416 Z M 5023,2416 L 5023,2416 Z M 5487,2456 C 5476,2469 5463,2479 5448,2486 5433,2493 5416,2496 5398,2496 5353,2496 5315,2478 5284,2443 5253,2407 5238,2363 5238,2310 5238,2257 5254,2212 5286,2176 5317,2140 5356,2122 5402,2122 5420,2122 5436,2125 5450,2131 5464,2137 5476,2147 5487,2159 5493,2148 5500,2140 5509,2134 5517,2128 5526,2126 5537,2126 5555,2126 5568,2132 5576,2144 5585,2157 5589,2176 5589,2202 L 5589,2416 C 5589,2442 5585,2461 5576,2474 5567,2486 5554,2493 5537,2493 5525,2493 5515,2489 5507,2484 5499,2478 5492,2468 5487,2456 Z M 5487,2456 L 5487,2456 Z M 5347,2308 C 5347,2334 5353,2355 5366,2371 5379,2387 5395,2395 5415,2395 5435,2395 5452,2387 5464,2371 5477,2355 5483,2334 5483,2308 5483,2283 5477,2263 5464,2247 5451,2231 5435,2223 5415,2223 5395,2223 5379,2231 5366,2247 5353,2263 5347,2283 5347,2308 Z"/>
       </g>
      </g>
      <g class="com.sun.star.drawing.ClosedBezierShape">
       <g id="id10">
        <rect class="BoundingBox" stroke="none" fill="none" x="5834" y="1972" width="2156" height="511"/>
        <path fill="rgb(255,255,255)" stroke="none" d="M 5837,2391 L 5894,2073 C 5899,2047 5907,2029 5918,2017 5929,2006 5945,2001 5966,2001 5986,2001 6002,2006 6014,2016 6026,2027 6035,2042 6040,2063 L 6111,2342 6177,2063 C 6182,2042 6190,2027 6202,2016 6214,2006 6230,2001 6249,2001 6271,2001 6288,2007 6300,2018 6311,2030 6319,2050 6324,2077 L 6376,2398 C 6376,2403 6377,2407 6377,2412 6378,2416 6378,2420 6378,2423 6378,2440 6373,2454 6363,2464 6354,2474 6341,2479 6325,2479 6310,2479 6298,2474 6289,2464 6280,2453 6275,2438 6272,2417 L 6239,2138 C 6213,2250 6194,2329 6181,2375 6169,2421 6159,2449 6152,2460 6148,2467 6143,2472 6136,2475 6129,2478 6120,2479 6108,2479 6090,2479 6077,2475 6067,2467 6058,2459 6051,2445 6046,2426 L 5977,2138 5941,2410 C 5937,2434 5931,2452 5922,2463 5913,2473 5901,2479 5885,2479 5870,2479 5857,2474 5848,2464 5838,2454 5834,2440 5834,2423 5834,2419 5834,2415 5834,2409 5835,2404 5836,2398 5837,2391 Z M 5837,2391 L 5837,2391 Z M 6489,2260 L 6625,2260 C 6624,2242 6617,2228 6604,2215 6591,2204 6576,2198 6559,2198 6541,2198 6526,2203 6514,2214 6501,2225 6493,2241 6489,2260 Z M 6489,2260 L 6489,2260 Z M 6491,2327 C 6493,2347 6501,2362 6515,2373 6528,2383 6546,2389 6569,2389 6588,2389 6609,2383 6633,2372 6657,2361 6672,2355 6677,2355 6689,2355 6699,2359 6707,2366 6714,2374 6718,2383 6718,2395 6718,2417 6703,2437 6672,2455 6641,2473 6605,2482 6563,2482 6512,2482 6470,2464 6436,2430 6402,2395 6385,2352 6385,2299 6385,2247 6401,2202 6434,2167 6467,2131 6509,2114 6558,2114 6606,2114 6646,2130 6678,2163 6710,2196 6726,2238 6726,2285 6726,2301 6722,2312 6715,2318 6708,2324 6695,2327 6675,2327 L 6491,2327 Z M 6491,2327 L 6491,2327 Z M 6756,2048 C 6756,2022 6760,2003 6769,1991 6777,1979 6790,1973 6808,1973 6825,1973 6838,1979 6846,1991 6854,2004 6859,2023 6859,2048 L 6859,2402 C 6859,2427 6855,2446 6846,2459 6838,2471 6825,2477 6808,2477 6790,2477 6777,2471 6769,2458 6760,2446 6756,2427 6756,2402 L 6756,2048 Z M 6756,2048 L 6756,2048 Z M 7138,2441 C 7127,2454 7115,2464 7100,2470 7085,2477 7069,2480 7052,2480 7008,2480 6970,2463 6940,2428 6909,2394 6894,2350 6894,2298 6894,2247 6910,2203 6942,2168 6973,2133 7011,2115 7055,2115 7073,2115 7088,2118 7102,2124 7115,2130 7127,2139 7138,2152 7144,2141 7151,2133 7159,2127 7168,2122 7177,2119 7187,2119 7204,2119 7217,2125 7225,2137 7234,2149 7238,2168 7238,2194 L 7238,2402 C 7238,2427 7233,2446 7225,2458 7217,2471 7204,2477 7187,2477 7176,2477 7166,2474 7158,2468 7150,2463 7143,2454 7138,2441 Z M 7138,2441 L 7138,2441 Z M 7002,2297 C 7002,2323 7008,2343 7020,2358 7033,2374 7049,2382 7068,2382 7088,2382 7104,2374 7116,2358 7128,2342 7135,2322 7135,2297 7135,2273 7128,2253 7116,2238 7103,2221 7088,2214 7068,2214 7049,2214 7033,2221 7020,2238 7008,2253 7002,2273 7002,2297 Z M 7002,2297 L 7002,2297 Z M 7377,2297 C 7377,2322 7383,2343 7396,2359 7409,2375 7425,2383 7445,2383 7464,2383 7481,2375 7493,2359 7506,2343 7512,2322 7512,2297 7512,2270 7506,2249 7493,2233 7481,2216 7465,2208 7445,2208 7425,2208 7408,2216 7396,2233 7383,2250 7377,2271 7377,2297 Z M 7377,2297 L 7377,2297 Z M 7513,2444 C 7503,2455 7490,2464 7476,2470 7462,2476 7446,2479 7430,2479 7386,2479 7349,2461 7318,2425 7286,2390 7271,2346 7271,2295 7271,2244 7286,2200 7317,2165 7348,2130 7386,2113 7430,2113 7446,2113 7460,2115 7473,2120 7487,2125 7499,2132 7511,2142 L 7511,2048 C 7511,2022 7515,2003 7523,1991 7532,1979 7545,1973 7562,1973 7579,1973 7592,1979 7601,1991 7609,2004 7613,2023 7613,2048 L 7613,2402 C 7613,2427 7609,2446 7601,2459 7592,2471 7580,2477 7562,2477 7552,2477 7543,2474 7535,2469 7526,2463 7519,2455 7513,2444 Z M 7513,2444 L 7513,2444 Z M 7889,2441 C 7878,2454 7866,2464 7851,2470 7836,2477 7820,2480 7802,2480 7758,2480 7721,2463 7691,2428 7661,2394 7646,2350 7646,2298 7646,2247 7662,2203 7693,2168 7724,2133 7762,2115 7806,2115 7824,2115 7839,2118 7853,2124 7866,2130 7878,2139 7889,2152 7895,2141 7902,2133 7910,2127 7918,2122 7928,2119 7938,2119 7955,2119 7968,2125 7976,2137 7984,2149 7989,2168 7989,2194 L 7989,2402 C 7989,2427 7984,2446 7976,2458 7968,2471 7955,2477 7938,2477 7926,2477 7917,2474 7909,2468 7901,2463 7894,2454 7889,2441 Z M 7889,2441 L 7889,2441 Z M 7753,2297 C 7753,2323 7759,2343 7771,2358 7784,2374 7800,2382 7819,2382 7839,2382 7855,2374 7867,2358 7879,2342 7886,2322 7886,2297 7886,2273 7879,2253 7867,2238 7854,2221 7839,2214 7819,2214 7800,2214 7784,2221 7771,2238 7759,2253 7753,2273 7753,2297 Z"/>
       </g>
      </g>
      <g class="com.sun.star.drawing.ClosedBezierShape">
       <g id="id11">
        <rect class="BoundingBox" stroke="none" fill="none" x="4139" y="3048" width="3283" height="332"/>
        <path fill="rgb(255,255,255)" stroke="none" d="M 4208,3258 C 4208,3274 4212,3288 4220,3299 4229,3309 4239,3315 4252,3315 4265,3315 4275,3309 4284,3299 4292,3288 4296,3274 4296,3258 4296,3241 4292,3227 4284,3216 4276,3206 4265,3201 4252,3201 4239,3201 4229,3206 4220,3217 4212,3227 4208,3241 4208,3258 Z M 4208,3258 L 4208,3258 Z M 4296,3354 C 4290,3361 4282,3367 4272,3371 4263,3375 4253,3377 4242,3377 4214,3377 4190,3365 4170,3342 4150,3319 4140,3290 4140,3257 4140,3224 4150,3196 4170,3173 4190,3150 4214,3139 4242,3139 4253,3139 4262,3141 4271,3144 4279,3147 4287,3152 4295,3158 L 4295,3096 C 4295,3080 4298,3067 4303,3059 4308,3052 4317,3048 4328,3048 4339,3048 4348,3052 4353,3060 4359,3068 4361,3080 4361,3096 L 4361,3327 C 4361,3343 4359,3356 4353,3364 4348,3372 4340,3375 4328,3375 4322,3375 4316,3374 4310,3370 4305,3366 4300,3361 4296,3354 Z M 4296,3354 L 4296,3354 Z M 4463,3258 C 4463,3275 4467,3289 4476,3300 4484,3311 4494,3316 4507,3316 4520,3316 4531,3311 4539,3300 4547,3289 4551,3275 4551,3258 4551,3242 4547,3228 4539,3218 4531,3207 4520,3202 4507,3202 4494,3202 4484,3207 4476,3218 4467,3228 4463,3241 4463,3258 Z M 4463,3258 L 4463,3258 Z M 4394,3259 C 4394,3224 4405,3196 4426,3173 4448,3151 4475,3140 4507,3140 4540,3140 4567,3151 4588,3173 4609,3195 4620,3224 4620,3259 4620,3294 4609,3323 4588,3346 4567,3368 4540,3379 4507,3379 4475,3379 4448,3368 4426,3346 4405,3323 4394,3294 4394,3259 Z M 4394,3259 L 4394,3259 Z M 4640,3259 C 4640,3224 4650,3195 4671,3173 4693,3151 4720,3140 4755,3140 4777,3140 4795,3144 4808,3152 4822,3160 4829,3170 4829,3183 4829,3191 4826,3198 4821,3203 4816,3209 4809,3211 4801,3211 4798,3211 4791,3210 4781,3206 4770,3203 4761,3201 4755,3201 4741,3201 4730,3206 4721,3217 4713,3227 4708,3241 4708,3258 4708,3275 4713,3289 4721,3300 4730,3310 4742,3315 4757,3315 4764,3315 4773,3313 4783,3310 4793,3306 4800,3305 4803,3305 4810,3305 4816,3308 4821,3313 4826,3319 4829,3326 4829,3334 4829,3346 4821,3356 4806,3365 4791,3374 4773,3378 4750,3378 4718,3378 4691,3367 4671,3345 4650,3323 4640,3294 4640,3259 Z M 4640,3259 L 4640,3259 Z M 4909,3234 L 4997,3234 C 4996,3223 4991,3213 4983,3206 4975,3198 4965,3194 4954,3194 4942,3194 4933,3198 4924,3205 4916,3212 4911,3222 4909,3234 Z M 4909,3234 L 4909,3234 Z M 4910,3278 C 4911,3290 4916,3301 4925,3308 4934,3315 4946,3318 4960,3318 4973,3318 4987,3315 5002,3308 5017,3300 5027,3297 5030,3297 5038,3297 5044,3299 5050,3304 5054,3309 5057,3315 5057,3323 5057,3337 5047,3350 5027,3361 5007,3373 4984,3378 4957,3378 4924,3378 4896,3367 4874,3345 4852,3322 4841,3293 4841,3259 4841,3225 4852,3197 4873,3174 4895,3151 4921,3140 4953,3140 4984,3140 5010,3151 5031,3172 5052,3193 5062,3220 5062,3250 5062,3261 5060,3267 5055,3272 5051,3276 5042,3278 5029,3278 L 4910,3278 Z M 4910,3278 L 4910,3278 Z M 5155,3379 C 5131,3379 5112,3374 5096,3365 5080,3355 5073,3343 5073,3329 5073,3321 5075,3314 5080,3308 5085,3302 5091,3299 5098,3299 5105,3299 5115,3303 5129,3309 5143,3315 5153,3319 5160,3319 5165,3319 5170,3317 5173,3315 5177,3312 5178,3309 5178,3305 5178,3298 5168,3290 5146,3281 5144,3281 5143,3280 5142,3280 5118,3270 5101,3259 5092,3249 5083,3239 5079,3227 5079,3211 5079,3191 5086,3174 5102,3160 5118,3146 5138,3140 5162,3140 5184,3140 5202,3144 5217,3153 5233,3163 5240,3174 5240,3186 5240,3194 5238,3201 5232,3206 5227,3211 5220,3214 5213,3214 5208,3214 5199,3211 5187,3206 5174,3201 5165,3198 5159,3198 5154,3198 5151,3199 5148,3201 5145,3203 5144,3206 5144,3210 5144,3216 5153,3222 5170,3229 5179,3232 5185,3235 5190,3237 5210,3246 5224,3255 5233,3265 5241,3275 5245,3287 5245,3303 5245,3324 5237,3343 5220,3357 5203,3372 5181,3379 5155,3379 Z M 5155,3379 L 5155,3379 Z M 5556,3352 C 5550,3360 5542,3367 5532,3371 5522,3375 5512,3378 5501,3378 5472,3378 5448,3366 5429,3344 5409,3321 5399,3292 5399,3259 5399,3226 5410,3198 5430,3175 5450,3152 5474,3141 5503,3141 5514,3141 5524,3143 5533,3147 5542,3150 5550,3156 5556,3165 5560,3158 5565,3152 5570,3149 5576,3145 5582,3143 5588,3143 5600,3143 5608,3147 5613,3155 5619,3163 5621,3175 5621,3192 L 5621,3327 C 5621,3343 5619,3355 5613,3363 5608,3371 5599,3375 5588,3375 5581,3375 5575,3373 5569,3370 5564,3366 5560,3360 5556,3352 Z M 5556,3352 L 5556,3352 Z M 5468,3258 C 5468,3274 5472,3288 5480,3299 5488,3309 5499,3314 5512,3314 5524,3314 5534,3309 5542,3298 5550,3287 5554,3274 5554,3258 5554,3242 5550,3230 5542,3220 5534,3210 5524,3205 5512,3205 5499,3205 5489,3210 5481,3220 5472,3229 5468,3242 5468,3258 Z M 5468,3258 L 5468,3258 Z M 5667,3327 L 5667,3192 C 5667,3175 5670,3163 5676,3155 5681,3147 5689,3143 5701,3143 5707,3143 5714,3145 5719,3149 5724,3152 5729,3157 5733,3165 5740,3157 5747,3152 5755,3148 5762,3144 5770,3142 5778,3142 5788,3142 5796,3145 5803,3152 5809,3158 5813,3166 5813,3175 5813,3189 5800,3200 5775,3209 5766,3212 5760,3214 5755,3216 5747,3221 5741,3225 5738,3230 5736,3235 5734,3244 5734,3256 L 5734,3327 C 5734,3343 5732,3355 5726,3363 5720,3371 5712,3375 5701,3375 5689,3375 5681,3371 5676,3363 5670,3355 5667,3343 5667,3327 Z M 5667,3327 L 5667,3327 Z M 5843,3208 L 5840,3208 C 5828,3208 5819,3205 5813,3200 5806,3195 5803,3188 5803,3179 5803,3170 5806,3163 5813,3158 5819,3153 5829,3150 5843,3149 L 5843,3119 C 5843,3103 5846,3090 5851,3082 5857,3074 5865,3070 5876,3070 5887,3070 5896,3074 5901,3082 5906,3090 5909,3103 5909,3119 L 5909,3149 5915,3149 C 5928,3149 5939,3152 5946,3157 5953,3162 5957,3170 5957,3179 5957,3188 5954,3196 5946,3200 5939,3205 5929,3208 5915,3208 L 5909,3208 5909,3327 C 5909,3343 5907,3356 5901,3364 5896,3372 5887,3375 5876,3375 5865,3375 5857,3371 5851,3363 5846,3355 5843,3343 5843,3327 L 5843,3208 Z M 5843,3208 L 5843,3208 Z M 6025,3234 L 6113,3234 C 6112,3223 6107,3213 6099,3206 6091,3198 6081,3194 6070,3194 6058,3194 6049,3198 6041,3205 6032,3212 6027,3222 6025,3234 Z M 6025,3234 L 6025,3234 Z M 6026,3278 C 6027,3290 6032,3301 6041,3308 6050,3315 6062,3318 6076,3318 6089,3318 6103,3315 6118,3308 6133,3300 6143,3297 6146,3297 6154,3297 6161,3299 6166,3304 6170,3309 6173,3315 6173,3323 6173,3337 6163,3350 6143,3361 6123,3373 6100,3378 6073,3378 6040,3378 6012,3367 5990,3345 5968,3322 5957,3293 5957,3259 5957,3225 5968,3197 5989,3174 6011,3151 6037,3140 6069,3140 6100,3140 6126,3151 6147,3172 6168,3193 6178,3220 6178,3250 6178,3261 6176,3267 6171,3272 6167,3276 6158,3278 6145,3278 L 6026,3278 Z M 6026,3278 L 6026,3278 Z M 6271,3379 C 6247,3379 6228,3374 6212,3365 6196,3355 6189,3343 6189,3329 6189,3321 6191,3314 6196,3308 6201,3302 6207,3299 6214,3299 6221,3299 6231,3303 6245,3309 6259,3315 6269,3319 6276,3319 6281,3319 6286,3317 6289,3315 6293,3312 6294,3309 6294,3305 6294,3298 6284,3290 6262,3281 6260,3281 6259,3280 6258,3280 6234,3270 6217,3259 6208,3249 6199,3239 6195,3227 6195,3211 6195,3191 6202,3174 6218,3160 6234,3146 6254,3140 6278,3140 6300,3140 6318,3144 6334,3153 6349,3163 6356,3174 6356,3186 6356,3194 6354,3201 6348,3206 6343,3211 6336,3214 6329,3214 6324,3214 6315,3211 6303,3206 6290,3201 6281,3198 6275,3198 6270,3198 6267,3199 6264,3201 6261,3203 6260,3206 6260,3210 6260,3216 6269,3222 6286,3229 6295,3232 6301,3235 6306,3237 6326,3246 6340,3255 6349,3265 6357,3275 6361,3287 6361,3303 6361,3324 6353,3343 6336,3357 6319,3372 6297,3379 6271,3379 Z M 6271,3379 L 6271,3379 Z M 6535,3352 C 6529,3360 6520,3367 6511,3371 6501,3375 6491,3378 6479,3378 6451,3378 6427,3366 6407,3344 6388,3321 6378,3292 6378,3259 6378,3226 6388,3198 6408,3175 6429,3152 6453,3141 6482,3141 6493,3141 6503,3143 6512,3147 6521,3150 6529,3156 6535,3165 6539,3158 6544,3152 6549,3149 6554,3145 6560,3143 6567,3143 6578,3143 6587,3147 6592,3155 6597,3163 6600,3175 6600,3192 L 6600,3327 C 6600,3343 6597,3355 6592,3363 6586,3371 6578,3375 6567,3375 6560,3375 6553,3373 6548,3370 6543,3366 6539,3360 6535,3352 Z M 6535,3352 L 6535,3352 Z M 6447,3258 C 6447,3274 6451,3288 6459,3299 6467,3309 6478,3314 6490,3314 6503,3314 6513,3309 6521,3298 6529,3287 6533,3274 6533,3258 6533,3242 6529,3230 6521,3220 6513,3210 6503,3205 6490,3205 6478,3205 6467,3210 6459,3220 6451,3229 6447,3242 6447,3258 Z M 6447,3258 L 6447,3258 Z M 6646,3327 L 6646,3192 C 6646,3175 6649,3163 6654,3155 6660,3147 6668,3143 6680,3143 6686,3143 6692,3145 6698,3149 6703,3152 6707,3157 6711,3165 6719,3157 6727,3151 6736,3147 6746,3144 6757,3142 6770,3142 6797,3142 6817,3150 6831,3165 6845,3180 6852,3202 6852,3230 L 6852,3327 C 6852,3343 6849,3355 6843,3363 6838,3371 6829,3375 6818,3375 6807,3375 6798,3371 6793,3363 6787,3355 6785,3343 6785,3327 L 6785,3250 C 6785,3232 6782,3219 6776,3211 6771,3203 6761,3199 6749,3199 6737,3199 6728,3203 6722,3211 6716,3219 6713,3232 6713,3250 L 6713,3327 C 6713,3343 6710,3355 6705,3363 6699,3371 6691,3375 6680,3375 6668,3375 6660,3371 6654,3363 6649,3355 6646,3343 6646,3327 Z M 6646,3327 L 6646,3327 Z M 7039,3352 C 7033,3360 7024,3367 7015,3371 7005,3375 6995,3378 6984,3378 6955,3378 6931,3366 6912,3344 6892,3321 6882,3292 6882,3259 6882,3226 6892,3198 6913,3175 6933,3152 6957,3141 6986,3141 6997,3141 7007,3143 7016,3147 7025,3150 7033,3156 7039,3165 7043,3158 7048,3152 7053,3149 7059,3145 7065,3143 7071,3143 7082,3143 7091,3147 7096,3155 7101,3163 7104,3175 7104,3192 L 7104,3327 C 7104,3343 7101,3355 7096,3363 7091,3371 7082,3375 7071,3375 7064,3375 7058,3373 7052,3370 7047,3366 7043,3360 7039,3352 Z M 7039,3352 L 7039,3352 Z M 6951,3258 C 6951,3274 6955,3288 6963,3299 6971,3309 6982,3314 6995,3314 7007,3314 7017,3309 7025,3298 7033,3287 7037,3274 7037,3258 7037,3242 7033,3230 7025,3220 7017,3210 7007,3205 6995,3205 6982,3205 6971,3210 6963,3220 6955,3229 6951,3242 6951,3258 Z M 6951,3258 L 6951,3258 Z M 7147,3086 C 7147,3076 7151,3066 7159,3059 7166,3051 7175,3048 7186,3048 7196,3048 7205,3051 7213,3059 7220,3066 7224,3076 7224,3086 7224,3097 7220,3106 7213,3113 7206,3121 7197,3125 7186,3125 7175,3125 7166,3121 7158,3113 7151,3106 7147,3097 7147,3086 Z M 7147,3086 L 7147,3086 Z M 7219,3327 C 7219,3343 7216,3356 7211,3364 7205,3372 7197,3375 7186,3375 7175,3375 7166,3371 7161,3363 7155,3355 7152,3343 7152,3327 L 7152,3192 C 7152,3175 7155,3163 7161,3155 7166,3147 7175,3143 7186,3143 7197,3143 7205,3147 7211,3155 7216,3163 7219,3175 7219,3192 L 7219,3327 Z M 7219,3327 L 7219,3327 Z M 7331,3379 C 7307,3379 7287,3374 7271,3365 7256,3355 7248,3343 7248,3329 7248,3321 7250,3314 7255,3308 7260,3302 7266,3299 7273,3299 7280,3299 7291,3303 7304,3309 7318,3315 7328,3319 7335,3319 7341,3319 7345,3317 7349,3315 7352,3312 7354,3309 7354,3305 7354,3298 7343,3290 7322,3281 7320,3281 7318,3280 7318,3280 7293,3270 7276,3259 7267,3249 7258,3239 7254,3227 7254,3211 7254,3191 7262,3174 7278,3160 7293,3146 7313,3140 7337,3140 7359,3140 7378,3144 7393,3153 7408,3163 7416,3174 7416,3186 7416,3194 7413,3201 7408,3206 7402,3211 7396,3214 7388,3214 7383,3214 7374,3211 7362,3206 7350,3201 7341,3198 7334,3198 7330,3198 7326,3199 7323,3201 7321,3203 7319,3206 7319,3210 7319,3216 7328,3222 7346,3229 7354,3232 7361,3235 7365,3237 7385,3246 7400,3255 7408,3265 7417,3275 7421,3287 7421,3303 7421,3324 7412,3343 7395,3357 7378,3372 7357,3379 7331,3379 Z"/>
       </g>
      </g>
      <g class="com.sun.star.drawing.LineShape">
       <g id="id12">
        <rect class="BoundingBox" stroke="none" fill="none" x="6192" y="2794" width="1809" height="21"/>
        <path fill="none" stroke="rgb(255,255,255)" stroke-width="20" stroke-linejoin="miter" d="M 6192,2804 L 8000,2804"/>
       </g>
      </g>
      <g class="com.sun.star.drawing.LineShape">
       <g id="id13">
        <rect class="BoundingBox" stroke="none" fill="none" x="3499" y="2794" width="1758" height="21"/>
        <path fill="none" stroke="rgb(255,255,255)" stroke-width="20" stroke-linejoin="miter" d="M 3499,2804 L 5256,2804"/>
       </g>
      </g>
      <g class="com.sun.star.drawing.ClosedBezierShape">
       <g id="id14">
        <rect class="BoundingBox" stroke="none" fill="none" x="5553" y="2612" width="309" height="394"/>
        <path fill="rgb(255,255,255)" stroke="none" d="M 5707,2692 C 5724,2647 5742,2625 5778,2625 5817,2625 5848,2665 5848,2714 5848,2804 5778,2895 5707,2984 5637,2895 5566,2804 5566,2714 5566,2665 5597,2625 5637,2625 5672,2625 5689,2647 5707,2692 Z"/>
        <path fill="none" stroke="rgb(255,255,255)" stroke-width="25" stroke-linejoin="miter" d="M 5707,2692 C 5724,2647 5742,2625 5778,2625 5817,2625 5848,2665 5848,2714 5848,2804 5778,2895 5707,2984 5637,2895 5566,2804 5566,2714 5566,2665 5597,2625 5637,2625 5672,2625 5689,2647 5707,2692 Z"/>
       </g>
      </g>
     </g>
    </g>
   </g>
  </g>
 </g>
</svg>